<svg xmlns="http://www.w3.org/2000/svg" xml:space="preserve" viewBox="0 0 48 48">
  <path d="m21.906 31.772 2.601-2.724 2.6 2.724V43h-5.201z" fill="#546e7a" />
  <path d="m17.737 29.058 3.705-.675.503 3.732-6.6 9.084-4.207-3.058z" fill="#f50057" />
  <path d="m15.962 24.409 3.393 1.632-1.786 3.315L6.89 32.825l-1.607-4.946z" fill="#d500f9" />
  <path d="m17.256 19.607 1.786 3.315-3.393 1.632-10.679-3.47 1.607-4.947z" fill="#29b6f6" />
  <path d="m21.126 16.482-.503 3.732-3.705-.675-6.6-9.084 4.208-3.057z" fill="#00e5ff" />
  <path d="m26.094 16.228-2.601 2.724-2.6-2.724V5h5.201z" fill="#546e7a" />
  <path d="m30.262 18.943-3.704.675-.503-3.732 6.599-9.084 4.208 3.057z" fill="#f50057" />
  <path d="m32.039 23.59-3.394-1.632 1.786-3.315 10.679-3.469 1.607 4.946z" fill="#d500f9" />
  <path d="m30.744 28.393-1.786-3.315 3.393-1.631 10.679 3.469-1.607 4.947z" fill="#29b6f6" />
  <path d="m26.874 31.518.504-3.732 3.704.675 6.6 9.084-4.208 3.057z" fill="#00e5ff" />
</svg>
